Coordinates
version=1
nRows=26
nColumns=24
inDegrees=yes

Units are S.I. units (second, meters, Newtons, ...)
Angles are in degrees.

endheader
time	pelvis_tilt	pelvis_list	pelvis_rotation	pelvis_tx	pelvis_ty	pelvis_tz	hip_flexion_r	hip_adduction_r	hip_rotation_r	knee_angle_r	ankle_angle_r	subtalar_angle_r	mtp_angle_r	hip_flexion_l	hip_adduction_l	hip_rotation_l	knee_angle_l	ankle_angle_l	subtalar_angle_l	mtp_angle_l	lumbar_extension	lumbar_bending	lumbar_rotation
      1.15800000	     -7.42262490	      1.71340469	     -5.12935378	      0.22695362	      1.06334669	      0.29350494	     24.53043279	     -4.91413817	     -5.11835016	    -71.03371849	      3.24806420	     -5.64935979	      7.13606063	     16.26379128	      1.67405860	     -2.60563950	    -16.83039686	     11.58329074	      3.36382502	      5.58350944	     -5.71465778	     -2.32378276	      1.06082112
      1.16216667	     -7.39084871	      1.57196174	     -5.11622800	      0.23219312	      1.06461734	      0.29338468	     24.97613237	     -4.68861128	     -5.22660200	    -70.77573427	      3.52551930	     -5.27376811	      7.14581950	     15.62804286	      1.57524281	     -2.54731362	    -16.24734640	     11.57273081	      3.37594256	      5.56965671	     -5.76862897	     -2.16834501	      0.93223044
      1.16633333	     -7.37234537	      1.40226309	     -5.10660288	      0.23741721	      1.06585766	      0.29331125	     25.41668876	     -4.41367253	     -5.32787340	    -70.43887828	      3.76019300	     -4.93493087	      7.16144672	     15.01519865	      1.43397589	     -2.53070414	    -15.68267107	     11.50621221	      3.43810210	      5.55943755	     -5.81993885	     -1.98035618	      0.86040295
      1.17050000	     -7.32249871	      1.26647935	     -5.07890961	      0.24265258	      1.06706603	      0.29318578	     25.81625652	     -4.19569819	     -5.44785875	    -70.06368467	      4.04630750	     -4.50975680	      7.19368131	     14.36129033	      1.34394959	     -2.46417276	    -15.09398990	     11.49137696	      3.44926679	      5.54399833	     -5.90058270	     -1.82689529	      0.72022780
      1.17466667	     -7.29150300	      1.11007645	     -5.04607169	      0.24788079	      1.06821550	      0.29307560	     26.21735081	     -3.94618591	     -5.57171495	    -69.61850839	      4.29494569	     -4.12241895	      7.23340032	     13.73588305	      1.22515041	     -2.41021864	    -14.52240226	     11.44669737	      3.47761214	      5.52847616	     -5.96390029	     -1.64944446	      0.60459517
      1.17883333	     -7.25364095	      0.95784352	     -5.00748305	      0.25310450	      1.06931553	      0.29297058	     26.59890830	     -3.70066355	     -5.69778084	    -69.12159174	      4.54174898	     -3.73153371	      7.27723325	     13.10775706	      1.10966146	     -2.36429168	    -13.95669626	     11.40213643	      3.51648728	      5.51417283	     -6.03831916	     -1.47975024	      0.49505362
      1.18300000	     -7.21029674	      0.80862540	     -4.95959920	      0.25832180	      1.07036722	      0.29285618	     26.96100233	     -3.46262417	     -5.83412750	    -68.57085687	      4.78177211	     -3.36050161	      7.33082353	     12.47703453	      0.99901769	     -2.30714911	    -13.39319031	     11.36230821	      3.54747662	      5.49867879	     -6.11490144	     -1.30619546	      0.36997927
      1.18716667	     -7.18204923	      0.65743525	     -4.90415373	      0.26353882	      1.07132597	      0.29273617	     27.32557678	     -3.22123205	     -5.97546430	    -67.96846263	      5.01090903	     -3.01320535	      7.39020379	     11.87077798	      0.88440165	     -2.25109102	    -12.84429597	     11.32331810	      3.58181009	      5.48364195	     -6.17541303	     -1.13105101	      0.24674772
      1.19133333	     -7.14355442	      0.51687992	     -4.84485695	      0.26874386	      1.07223206	      0.29262525	     27.66980466	     -2.99188557	     -6.11583821	    -67.32237947	      5.23653629	     -2.68823196	      7.45680356	     11.25698303	      0.78096018	     -2.19045990	    -12.29766195	     11.28312798	      3.61047657	      5.46784063	     -6.25244739	     -0.97058797	      0.11765767
      1.19550000	     -7.11093362	      0.38383513	     -4.77903474	      0.27395676	      1.07306994	      0.29251223	     28.00724126	     -2.77234056	     -6.25983992	    -66.62788113	      5.44961362	     -2.39350190	      7.52734015	     10.65431837	      0.68412851	     -2.12645336	    -11.75895099	     11.24625526	      3.63037873	      5.45211290	     -6.31882654	     -0.81510290	     -0.01326237
      1.19966667	     -7.07524541	      0.24059178	     -4.70632748	      0.27915274	      1.07384073	      0.29239221	     28.32551852	     -2.54299948	     -6.41024154	    -65.88251157	      5.65132956	     -2.13570338	      7.60310985	     10.05594433	      0.57591466	     -2.05673484	    -11.23322764	     11.21377005	      3.66050716	      5.43696610	     -6.39853800	     -0.64898593	     -0.14614151
      1.20383333	     -7.04800559	      0.11400457	     -4.62976327	      0.28434885	      1.07451499	      0.29227227	     28.64469405	     -2.33427479	     -6.56217706	    -65.09943890	      5.84664826	     -1.90323443	      7.67469433	      9.47545410	      0.48388520	     -1.99965998	    -10.72140044	     11.19417230	      3.68228282	      5.42339564	     -6.45508661	     -0.49963122	     -0.26855183
      1.20800000	     -7.02235624	     -0.00422338	     -4.55059593	      0.28953980	      1.07510443	      0.29214989	     28.95527729	     -2.13595021	     -6.71124537	    -64.27747726	      6.03308254	     -1.70675760	      7.74921183	      8.90200317	      0.40003821	     -1.92905414	    -10.21964807	     11.17425036	      3.69871210	      5.41010670	     -6.51765163	     -0.36074393	     -0.40214265
      1.21216667	     -7.02106425	     -0.13847033	     -4.46848720	      0.29473305	      1.07560838	      0.29204944	     29.27090097	     -1.91427726	     -6.86304993	    -63.39574185	      6.20170893	     -1.56182222	      7.79229989	      8.37021419	      0.29074759	     -1.89390962	     -9.75095725	     11.14994229	      3.75441884	      5.40258063	     -6.54642537	     -0.20935578	     -0.48288373
      1.21633333	     -6.99119863	     -0.24210317	     -4.37758214	      0.29991699	      1.07605386	      0.29191033	     29.55271508	     -1.74128595	     -7.02132328	    -62.49421028	      6.36590040	     -1.42383873	      7.86074186	      7.80077715	      0.22419264	     -1.79798262	     -9.26073612	     11.16692769	      3.74761157	      5.39246067	     -6.61340658	     -0.07680788	     -0.65158403
      1.22050000	     -6.98440731	     -0.34454050	     -4.28904301	      0.30509542	      1.07638210	      0.29180132	     29.84745164	     -1.56216305	     -7.16992904	    -61.55075674	      6.52328785	     -1.32973926	      7.92715842	      7.26901636	      0.15171718	     -1.72139806	     -8.79752648	     11.16704076	      3.75230391	      5.38271237	     -6.65372003	      0.04831329	     -0.78233755
      1.22466667	     -6.99452542	     -0.44300026	     -4.19616499	      0.31028329	      1.07661339	      0.29168316	     30.14471399	     -1.39064414	     -7.32185262	    -60.56439553	      6.66976150	     -1.26132833	      7.99127684	      6.76291189	      0.08155462	     -1.64188502	     -8.34994200	     11.17601542	      3.75676925	      5.37430772	     -6.66982517	      0.17022970	     -0.91183855
      1.22883333	     -7.01823902	     -0.53606513	     -4.10773157	      0.31545868	      1.07673827	      0.29158814	     30.44571956	     -1.21889719	     -7.46067230	    -59.53998010	      6.82456778	     -1.21328852	      8.02667963	      6.28984615	      0.01109078	     -1.60232256	     -7.94059175	     11.18360088	      3.79969906	      5.37019934	     -6.67302588	      0.27474391	     -0.98966615
      1.23300000	     -7.02163120	     -0.60652357	     -4.01321869	      0.32063104	      1.07680469	      0.29147887	     30.71772986	     -1.08295766	     -7.60505075	    -58.49120648	      6.94732724	     -1.19018606	      8.08724516	      5.78393452	     -0.02894086	     -1.49512957	     -7.50293441	     11.22734991	      3.77185203	      5.36396960	     -6.70057699	      0.37264118	     -1.15966590
      1.23716667	     -7.06228874	     -0.68587317	     -3.92626387	      0.32581799	      1.07674959	      0.29139864	     31.00983817	     -0.92676322	     -7.73515857	    -57.39191794	      7.09740553	     -1.17260223	      8.11683452	      5.34081663	     -0.08882804	     -1.45537573	     -7.11948209	     11.25184792	      3.80904927	      5.36138680	     -6.68079166	      0.46454225	     -1.22683040
      1.24133333	     -7.09909775	     -0.75066968	     -3.83597907	      0.33099822	      1.07661338	      0.29131771	     31.28741806	     -0.79099388	     -7.86535892	    -56.26151188	      7.22402985	     -1.17245067	      8.14696189	      4.89577618	     -0.13149680	     -1.39035493	     -6.73723113	     11.30535794	      3.82581150	      5.35957585	     -6.66688986	      0.54776098	     -1.32964453
      1.24550000	     -7.15156892	     -0.80605556	     -3.74909358	      0.33618071	      1.07636164	      0.29124185	     31.57055236	     -0.66479710	     -7.98678094	    -55.09979507	      7.34874631	     -1.18142781	      8.17606535	      4.47482556	     -0.16621355	     -1.32230406	     -6.37171598	     11.36822135	      3.83076764	      5.35860501	     -6.63389868	      0.62183298	     -1.43716893
      1.24966667	     -7.20487201	     -0.85228166	     -3.66450749	      0.34136254	      1.07604693	      0.29118369	     31.84003233	     -0.54682650	     -8.09992405	    -53.89940425	      7.46933738	     -1.19249532	      8.20471115	      4.06028309	     -0.19280727	     -1.25202533	     -6.01718153	     11.43633218	      3.82647440	      5.35798272	     -6.60071424	      0.68399176	     -1.54533784
      1.25383333	     -7.25789884	     -0.88823597	     -3.57861882	      0.34654452	      1.07564945	      0.29111906	     32.09702945	     -0.44348263	     -8.20948251	    -52.66850034	      7.55627360	     -1.23117188	      8.26094157	      3.64039612	     -0.20610747	     -1.12683070	     -5.65113687	     11.51429949	      3.75274672	      5.35627964	     -6.56903604	      0.74299245	     -1.72228248
      1.25800000	     -7.34203523	     -0.91507346	     -3.50608668	      0.35173596	      1.07513602	      0.29109797	     32.37126731	     -0.33800323	     -8.29337515	    -51.39902525	      7.70172199	     -1.21447913	      8.28642609	      3.27910982	     -0.21841048	     -1.08791859	     -5.34245027	     11.59078340	      3.77078713	      5.35640996	     -6.49465085	      0.77858881	     -1.77201428
      1.26216667	     -7.44428786	     -0.93320053	     -3.43534372	      0.35693867	      1.07450656	      0.29108058	     32.65203642	     -0.24121989	     -8.37062269	    -50.09935154	      7.81643090	     -1.21224080	      8.31275670	      2.94069352	     -0.22204596	     -1.03083089	     -5.04323114	     11.69412876	      3.76828697	      5.35702181	     -6.39939873	      0.80757221	     -1.84955048
